<?xml version="1.0" standalone="no"?>
<!DOCTYPE svg PUBLIC "-//W3C//DTD SVG 20010904//EN"
 "http://www.w3.org/TR/2001/REC-SVG-20010904/DTD/svg10.dtd">
<svg version="1.0" xmlns="http://www.w3.org/2000/svg"
 width="1280.000000pt" height="816.000000pt" viewBox="0 0 1280.000000 816.000000"
 preserveAspectRatio="xMidYMid meet">
<metadata>
Created by potrace 1.15, written by Peter Selinger 2001-2017
</metadata>
<g transform="translate(0.000000,816.000000) scale(0.100000,-0.100000)"
fill="#000000" stroke="none">
<path d="M8585 7796 c-783 -351 -2625 -1177 -4128 -1850 -400 -179 -734 -326
-742 -326 -26 0 -45 -42 -45 -100 1 -30 7 -118 14 -195 8 -77 11 -143 8 -146
-6 -5 -915 -430 -2786 -1303 -264 -123 -391 -187 -398 -201 -6 -14 7 -103 42
-295 28 -151 69 -371 90 -488 41 -221 58 -276 106 -329 32 -35 2656 -1846
2692 -1858 18 -5 37 2 80 32 244 169 430 288 304 194 l-27 -20 40 10 c126 32
262 110 595 344 25 17 74 52 110 77 36 24 94 65 130 90 36 24 94 65 130 90 36
24 94 65 130 90 36 24 97 66 135 93 39 27 98 68 133 92 34 24 91 63 127 88 36
25 94 65 130 90 36 25 93 64 128 88 57 40 161 111 277 191 25 17 47 33 50 36
12 12 251 169 317 209 141 84 328 150 425 151 l33 1 -27 15 c-16 8 -28 17 -28
19 0 3 67 -29 150 -70 82 -41 160 -75 173 -75 13 0 41 13 63 29 21 15 300 217
619 448 606 438 2809 2033 3310 2397 160 115 479 347 710 514 231 167 430 315
441 327 17 18 23 42 28 106 4 46 25 281 47 521 46 509 47 530 26 561 -22 34
-63 47 -447 141 -190 47 -457 112 -595 146 -137 34 -359 88 -492 121 -634 155
-746 182 -995 243 -147 36 -269 66 -270 66 -2 0 -367 -164 -813 -364z"/>
</g>
</svg>
