<?xml version="1.0" standalone="no"?>
<!DOCTYPE svg PUBLIC "-//W3C//DTD SVG 20010904//EN"
 "http://www.w3.org/TR/2001/REC-SVG-20010904/DTD/svg10.dtd">
<svg version="1.0" xmlns="http://www.w3.org/2000/svg"
 width="1280.000000pt" height="1164.000000pt" viewBox="0 0 1280.000000 1164.000000"
 preserveAspectRatio="xMidYMid meet">
<metadata>
Created by potrace 1.15, written by Peter Selinger 2001-2017
</metadata>
<g transform="translate(0.000000,1164.000000) scale(0.100000,-0.100000)"
fill="#000000" stroke="none">
<path d="M1609 9743 c-838 -917 -1523 -1671 -1521 -1676 1 -5 764 -963 1695
-2130 1783 -2235 2035 -2551 3631 -4552 548 -687 1005 -1251 1014 -1252 11 -2
33 20 60 58 39 55 2360 2967 5680 7127 331 415 601 758 600 762 -2 4 -687 755
-1522 1668 l-1520 1662 -3296 0 -3297 0 -1524 -1667z"/>
</g>
</svg>
