<?xml version="1.0" standalone="no"?>
<!DOCTYPE svg PUBLIC "-//W3C//DTD SVG 20010904//EN"
 "http://www.w3.org/TR/2001/REC-SVG-20010904/DTD/svg10.dtd">
<svg version="1.0" xmlns="http://www.w3.org/2000/svg"
 width="640.000000pt" height="1280.000000pt" viewBox="0 0 640.000000 1280.000000"
 preserveAspectRatio="xMidYMid meet">
<metadata>
Created by potrace 1.15, written by Peter Selinger 2001-2017
</metadata>
<g transform="translate(0.000000,1280.000000) scale(0.100000,-0.100000)"
fill="#000000" stroke="none">
<path d="M2568 12765 c-58 -20 -115 -43 -126 -53 -10 -9 -54 -58 -96 -109 -60
-72 -91 -123 -146 -235 -68 -142 -69 -144 -86 -283 -27 -221 -27 -259 -5 -413
15 -102 21 -192 21 -315 l-1 -172 -113 -210 c-87 -161 -119 -211 -137 -216
-13 -4 -73 -23 -134 -42 -60 -19 -126 -38 -146 -41 -67 -12 -73 -26 -180 -418
l-100 -363 -24 -270 c-13 -148 -29 -324 -35 -390 -18 -193 -98 -731 -125 -840
-20 -82 -25 -125 -25 -241 0 -82 -8 -205 -20 -290 -10 -82 -24 -205 -30 -274
-6 -69 -17 -181 -25 -250 -15 -132 -29 -451 -30 -657 0 -115 1 -123 24 -147
23 -25 24 -28 12 -83 -7 -32 -35 -114 -62 -184 -49 -125 -49 -125 -49 -245 0
-102 3 -126 21 -159 11 -22 27 -61 35 -87 8 -26 19 -50 25 -53 5 -4 20 -23 33
-43 13 -21 49 -57 81 -82 31 -25 81 -66 109 -92 29 -27 61 -48 70 -48 13 0 16
-7 12 -32 -22 -134 -36 -354 -96 -1410 -6 -98 -10 -238 -10 -311 0 -74 -7
-178 -14 -233 -21 -141 -29 -257 -22 -297 6 -30 14 -38 54 -55 61 -26 64 -27
421 -67 167 -18 305 -36 307 -38 3 -2 7 -40 10 -83 4 -68 35 -267 64 -414 34
-171 100 -732 110 -939 5 -101 11 -185 13 -187 2 -2 37 -9 79 -15 65 -9 77
-14 82 -33 9 -35 9 -284 0 -298 -7 -11 -20 -403 -27 -805 l-2 -92 39 -40 c80
-82 255 -119 421 -91 85 14 127 37 154 80 l18 30 19 -21 c10 -12 44 -33 74
-47 49 -23 68 -26 175 -27 114 0 123 2 180 30 32 17 68 43 79 58 30 41 33 143
7 258 -11 52 -27 146 -36 209 -27 200 -46 299 -72 373 -22 59 -28 99 -34 227
-5 85 -11 171 -14 190 -6 33 -3 37 49 78 54 42 56 45 56 92 0 26 -7 111 -15
188 -12 119 -13 221 -5 649 5 279 10 522 10 539 l0 32 359 3 c198 2 362 7 366
11 7 7 -7 763 -25 1408 -6 190 -15 586 -20 880 -21 1162 -29 1354 -61 1635
-16 143 -34 301 -40 350 -8 70 -58 337 -107 563 -4 19 0 22 26 22 31 0 137 35
158 52 8 6 31 -11 69 -51 67 -71 141 -121 177 -121 31 0 22 -7 348 268 306
259 818 735 826 768 18 71 -42 238 -143 402 -65 105 -386 539 -468 630 -22 26
-51 64 -63 85 -12 21 -123 151 -246 290 -124 139 -243 279 -264 312 -22 33
-62 89 -91 124 -28 35 -54 76 -57 90 -11 51 -35 109 -52 124 -9 8 -44 17 -78
21 -69 8 -283 51 -291 60 -3 3 -10 49 -15 103 -7 68 -20 125 -45 192 -47 129
-63 188 -63 237 0 22 -4 65 -9 95 -6 30 -15 88 -21 129 -6 41 -29 131 -52 200
-39 122 -40 129 -44 295 -6 226 -11 246 -94 353 -96 125 -187 202 -306 259
l-99 48 -145 3 c-143 2 -147 2 -252 -33z m1550 -3219 c55 -15 98 -38 119 -65
7 -9 43 -58 80 -110 67 -93 170 -192 259 -248 44 -28 80 -77 145 -197 l39 -73
-31 -7 c-17 -3 -42 -6 -54 -6 -26 0 -109 -85 -179 -182 -41 -59 -56 -72 -121
-103 -40 -19 -81 -35 -89 -35 -9 0 -33 -15 -53 -34 -21 -18 -63 -45 -93 -59
-30 -15 -100 -56 -155 -92 -55 -36 -103 -65 -106 -65 -3 0 -14 21 -24 48 -10
26 -24 57 -31 70 -13 19 -13 22 1 22 16 0 21 53 9 97 -9 31 -58 49 -97 35 -17
-6 -32 -10 -33 -9 -6 5 64 306 96 417 42 143 87 265 144 383 36 76 66 142 66
145 0 4 5 24 11 45 11 42 18 44 97 23z m-2244 -648 c15 -50 18 -247 7 -328
-15 -99 -36 -157 -98 -265 -26 -44 -50 -96 -54 -115 -4 -19 -19 -64 -34 -99
-15 -36 -37 -114 -50 -175 -12 -61 -33 -138 -47 -171 -14 -33 -30 -80 -36
-105 -20 -79 -32 -317 -32 -626 0 -268 -2 -304 -19 -348 l-19 -50 -6 90 c-19
286 2 701 48 934 35 178 49 275 50 355 1 45 9 90 23 125 12 30 24 71 27 91 4
21 13 42 20 48 8 7 17 28 21 49 3 20 30 109 60 197 36 110 55 185 60 240 5 53
16 96 31 128 27 52 38 58 48 25z m-378 -2334 c-4 -14 -9 -24 -12 -21 -3 2 -2
17 2 31 3 15 9 25 11 22 3 -3 2 -17 -1 -32z m-178 -871 l-3 -88 -24 48 c-20
41 -23 56 -17 110 4 34 15 91 24 127 l17 65 3 -87 c1 -49 1 -127 0 -175z
m1472 -4282 c0 -4 11 -24 24 -43 21 -32 24 -51 34 -239 6 -112 18 -274 27
-359 9 -85 14 -186 13 -225 l-3 -70 -18 90 c-10 50 -23 155 -27 235 -5 80 -14
172 -20 205 -5 33 -10 105 -10 160 0 71 -6 119 -20 165 -22 74 -24 90 -10 90
6 0 10 -4 10 -9z"/>
</g>
</svg>
